<?xml version="1.0" standalone="no"?>
<!DOCTYPE svg PUBLIC "-//W3C//DTD SVG 20010904//EN"
 "http://www.w3.org/TR/2001/REC-SVG-20010904/DTD/svg10.dtd">
<svg version="1.0" xmlns="http://www.w3.org/2000/svg"
 width="383.000000pt" height="132.000000pt" viewBox="0 0 383.000000 132.000000"
 preserveAspectRatio="xMidYMid meet">

<g transform="translate(0.000000,132.000000) scale(0.100000,-0.100000)"
fill="#000000" stroke="none">
<path d="M758 1083 c6 -2 18 -2 25 0 6 3 1 5 -13 5 -14 0 -19 -2 -12 -5z"/>
<path d="M588 1073 c7 -3 16 -2 19 1 4 3 -2 6 -13 5 -11 0 -14 -3 -6 -6z"/>
<path d="M354 918 l-19 -23 23 19 c21 18 27 26 19 26 -2 0 -12 -10 -23 -22z"/>
<path d="M486 911 c-4 -5 3 -7 14 -4 23 6 26 13 6 13 -8 0 -17 -4 -20 -9z"/>
<path d="M620 896 c0 -2 11 -6 25 -8 13 -3 22 -1 19 3 -5 9 -44 13 -44 5z"/>
<path d="M458 883 c7 -3 16 -2 19 1 4 3 -2 6 -13 5 -11 0 -14 -3 -6 -6z"/>
<path d="M2555 853 c-14 -21 -35 -67 -46 -103 -22 -73 -35 -229 -21 -275 7
-25 14 -30 45 -33 41 -4 42 -2 25 64 -12 45 -12 47 15 70 42 36 51 23 43 -62
l-6 -74 35 0 c29 0 36 4 41 26 11 43 -3 255 -20 311 -16 50 -58 113 -77 113
-4 0 -20 -17 -34 -37z m55 -124 c13 -47 4 -65 -29 -54 -24 7 -26 19 -10 64 15
42 26 39 39 -10z"/>
<path d="M1450 868 c-14 -7 -36 -35 -50 -63 -22 -43 -25 -63 -25 -150 0 -111
20 -183 58 -210 61 -43 127 9 127 98 l0 52 -20 -33 c-27 -43 -58 -40 -83 8
-14 27 -17 52 -14 112 4 75 16 108 43 108 7 0 14 -11 16 -25 3 -24 4 -25 26
-10 25 18 30 70 10 98 -18 23 -58 29 -88 15z"/>
<path d="M1664 865 c-54 -37 -99 -237 -75 -337 17 -74 33 -88 98 -88 45 0 58
4 78 26 30 32 40 93 31 191 -8 86 -35 165 -67 199 -26 28 -37 29 -65 9z m53
-141 c14 -63 16 -140 3 -165 -14 -25 -47 -24 -61 3 -22 41 8 224 35 215 6 -2
16 -26 23 -53z"/>
<path d="M1886 849 c-38 -45 -60 -130 -60 -234 -1 -148 14 -175 98 -175 65 0
94 26 107 97 24 128 -39 343 -101 343 -10 0 -30 -14 -44 -31z m63 -106 c30
-110 22 -203 -18 -203 -35 0 -44 25 -38 108 8 124 36 170 56 95z"/>
<path d="M2103 874 c-32 -8 -44 -27 -52 -89 l-8 -56 27 26 c14 14 28 25 31 25
3 0 5 -75 5 -167 l-1 -168 36 -3 36 -3 -5 159 c-3 100 -1 166 6 177 9 17 12
16 30 -14 15 -26 21 -29 26 -16 11 30 6 102 -8 114 -15 13 -90 22 -123 15z"/>
<path d="M2980 851 c-40 -40 -64 -127 -64 -236 -1 -146 14 -175 94 -175 63 0
77 6 98 44 22 42 22 199 -1 278 -18 60 -59 118 -84 118 -8 0 -27 -13 -43 -29z
m59 -108 c18 -66 23 -147 12 -175 -12 -31 -41 -37 -61 -13 -23 28 4 225 31
225 4 0 13 -17 18 -37z"/>
<path d="M3459 869 c-14 -5 -36 -29 -50 -52 -32 -57 -40 -219 -14 -296 28 -85
91 -115 140 -67 26 26 41 85 30 113 -6 16 -9 14 -21 -10 -19 -35 -49 -33 -77
5 -38 51 -20 228 22 228 5 0 13 -11 18 -25 7 -23 10 -24 28 -12 28 21 26 84
-4 108 -26 21 -34 22 -72 8z"/>
<path d="M416 853 c-6 -14 -5 -15 5 -6 7 7 10 15 7 18 -3 3 -9 -2 -12 -12z"/>
<path d="M2266 854 c-3 -9 -6 -105 -6 -215 l0 -199 39 0 40 0 -2 75 c-1 43 2
76 8 77 10 3 29 -51 40 -114 6 -36 8 -38 42 -38 l36 0 -7 56 c-3 31 -16 78
-27 105 l-21 48 21 44 c27 56 27 116 0 151 -18 24 -27 26 -89 26 -53 0 -69 -4
-74 -16z m110 -81 c7 -28 -11 -73 -33 -81 -9 -2 -13 11 -13 46 0 27 3 52 7 55
14 15 33 6 39 -20z"/>
<path d="M2742 853 c-4 -10 -7 -106 -7 -213 l0 -195 38 -3 38 -3 -7 75 c-5 61
-4 80 10 100 9 15 22 23 30 20 17 -7 21 0 30 50 l7 39 -40 -6 c-39 -5 -41 -4
-41 22 0 43 22 65 58 58 33 -7 42 4 42 49 0 23 -2 24 -75 24 -63 0 -77 -3 -83
-17z"/>
<path d="M3166 854 c-3 -9 -6 -105 -6 -215 l0 -199 40 0 40 0 -6 74 c-9 106
24 115 41 11 14 -87 13 -85 52 -85 l36 0 -7 56 c-3 31 -16 78 -27 105 l-21 48
21 44 c27 56 27 116 0 151 -18 24 -27 26 -89 26 -53 0 -69 -4 -74 -16z m110
-81 c7 -28 -11 -73 -33 -81 -9 -2 -13 11 -13 46 0 27 3 52 7 55 14 15 33 6 39
-20z"/>
<path d="M326 785 c-9 -26 -7 -32 5 -12 6 10 9 21 6 23 -2 3 -7 -2 -11 -11z"/>
<path d="M771 727 c-6 -15 -21 -29 -33 -32 -13 -3 -50 -11 -83 -18 l-60 -12
-3 -73 -3 -72 268 2 267 3 10 33 c9 31 6 36 -40 83 -69 70 -137 101 -235 107
-77 4 -79 4 -88 -21z"/>
<path d="M425 680 c-3 -6 1 -7 9 -4 18 7 21 14 7 14 -6 0 -13 -4 -16 -10z"/>
<path d="M460 660 c-8 -5 -10 -10 -5 -10 6 0 17 5 25 10 8 5 11 10 5 10 -5 0
-17 -5 -25 -10z"/>
<path d="M373 593 c-71 -27 -93 -40 -93 -54 0 -18 9 -19 120 -19 l120 0 0 49
c0 42 -3 49 -22 55 -29 7 -19 10 -125 -31z"/>
<path d="M2194 372 c-18 -12 -36 -52 -30 -68 7 -19 26 -18 26 1 0 8 7 15 16
15 10 0 14 -6 10 -15 -3 -9 0 -15 9 -15 20 0 20 54 -1 74 -18 18 -16 18 -30 8z
m17 -35 c-13 -13 -26 -3 -16 12 3 6 11 8 17 5 6 -4 6 -10 -1 -17z"/>
<path d="M2462 368 c-11 -15 -4 -78 9 -78 5 0 9 12 10 28 0 15 2 35 4 45 4 20
-8 23 -23 5z"/>
<path d="M2864 356 c-7 -31 -2 -58 12 -63 7 -2 11 14 11 42 0 48 -13 60 -23
21z"/>
<path d="M3009 362 c-38 -40 -30 -72 18 -72 22 0 24 3 21 42 -3 46 -15 55 -39
30z m11 -33 c0 -11 -4 -18 -10 -14 -5 3 -7 12 -3 20 7 21 13 19 13 -6z"/>
<path d="M3130 335 c0 -25 5 -45 10 -45 6 0 10 20 10 45 0 25 -4 45 -10 45 -5
0 -10 -20 -10 -45z"/>
<path d="M1380 355 c-31 -37 33 -88 67 -54 8 8 13 8 17 0 11 -17 43 -13 50 6
6 15 8 15 19 -2 19 -25 51 -15 55 17 4 33 -34 50 -53 24 -11 -14 -14 -15 -25
-1 -19 23 -36 18 -60 -15 -24 -34 -50 -30 -50 7 0 20 4 23 20 18 11 -4 20 -2
20 4 0 17 -46 13 -60 -4z m120 -30 c0 -8 -4 -15 -9 -15 -13 0 -22 16 -14 24
11 11 23 6 23 -9z m70 0 c0 -8 -4 -15 -10 -15 -5 0 -10 7 -10 15 0 8 5 15 10
15 6 0 10 -7 10 -15z"/>
<path d="M1867 363 c-7 -13 4 -73 14 -73 5 0 9 14 9 30 0 17 0 33 1 37 1 11
-18 15 -24 6z"/>
<path d="M2284 360 c-18 -7 -34 -45 -34 -81 0 -10 31 -12 54 -3 25 9 19 22
-11 27 -27 4 -27 4 -5 12 14 5 22 15 22 31 0 13 -1 24 -2 23 -2 0 -12 -4 -24
-9z m13 -76 c-3 -3 -12 -4 -19 -1 -8 3 -5 6 6 6 11 1 17 -2 13 -5z"/>
<path d="M2759 366 c-8 -9 3 -76 12 -76 5 0 9 14 9 30 0 17 0 33 1 37 1 9 -15
15 -22 9z"/>
<path d="M3257 363 c-4 -3 -7 -19 -7 -34 0 -22 6 -30 26 -35 15 -4 30 -2 37 6
9 10 8 12 -5 7 -9 -3 -22 1 -28 8 -16 19 -4 49 15 41 8 -3 17 -1 20 4 7 11
-48 14 -58 3z"/>
<path d="M1600 315 c0 -51 12 -57 45 -20 18 19 24 21 29 10 6 -17 42 -20 51
-5 3 6 -1 7 -9 4 -9 -3 -16 -2 -16 4 0 5 7 12 15 16 8 3 15 10 15 16 0 19 -30
23 -49 6 -16 -15 -19 -15 -24 -1 -4 8 -18 15 -32 15 -23 0 -25 -4 -25 -45z
m110 25 c0 -5 -5 -10 -11 -10 -5 0 -7 5 -4 10 3 6 8 10 11 10 2 0 4 -4 4 -10z
m-70 -20 c0 -11 -4 -20 -10 -20 -5 0 -10 9 -10 20 0 11 5 20 10 20 6 0 10 -9
10 -20z"/>
<path d="M1740 324 c0 -23 5 -34 15 -34 9 0 14 8 12 22 -1 15 5 23 25 29 16 4
30 4 33 -1 3 -4 -5 -10 -16 -13 -29 -8 -19 -31 15 -35 26 -3 27 -1 24 30 -3
33 -4 33 -55 34 l-53 1 0 -33z"/>
<path d="M1904 346 c-8 -21 -1 -49 14 -54 8 -2 12 8 12 32 0 36 -16 49 -26 22z"/>
<path d="M1940 342 c0 -10 7 -27 15 -38 15 -19 15 -19 30 0 17 22 20 56 6 56
-5 0 -12 -10 -14 -22 l-4 -23 -8 23 c-9 26 -25 29 -25 4z"/>
<path d="M2015 351 c-3 -7 0 -8 9 -5 21 8 20 -6 -1 -21 -20 -15 -9 -35 18 -35
17 0 20 6 17 32 -3 33 -29 50 -43 29z"/>
<path d="M2330 323 c0 -18 5 -33 10 -33 6 0 10 11 10 25 0 32 27 34 32 3 2
-17 10 -23 28 -23 20 0 26 6 28 28 2 15 0 28 -5 28 -4 1 -29 3 -55 4 l-48 2 0
-34z m90 2 c0 -8 -4 -15 -10 -15 -5 0 -10 7 -10 15 0 8 5 15 10 15 6 0 10 -7
10 -15z"/>
<path d="M2500 340 c-9 -16 -8 -25 1 -36 27 -33 75 -2 52 35 -15 24 -40 25
-53 1z m40 -15 c0 -8 -4 -15 -10 -15 -5 0 -10 7 -10 15 0 8 5 15 10 15 6 0 10
-7 10 -15z"/>
<path d="M2570 324 c0 -22 5 -34 14 -34 9 0 12 8 9 24 -7 37 16 42 28 7 11
-31 41 -42 54 -21 3 6 -1 7 -9 4 -9 -3 -16 -2 -16 4 0 5 7 13 16 16 33 12 7
31 -44 32 l-52 1 0 -33z m90 16 c0 -5 -5 -10 -11 -10 -5 0 -7 5 -4 10 3 6 8
10 11 10 2 0 4 -4 4 -10z"/>
<path d="M2694 348 c-4 -6 0 -16 9 -23 22 -16 22 -26 0 -18 -11 4 -14 3 -9 -5
12 -20 46 -14 46 8 0 11 -4 20 -10 20 -5 0 -10 5 -10 11 0 5 5 7 12 3 7 -4 8
-3 4 4 -9 15 -33 15 -42 0z"/>
<path d="M2800 350 c0 -6 4 -9 9 -5 5 3 12 1 16 -5 3 -5 0 -10 -8 -10 -16 0
-30 -24 -20 -34 4 -3 17 -6 30 -6 21 0 24 4 21 33 -2 24 -8 33 -25 35 -13 2
-23 -2 -23 -8z"/>
<path d="M3064 346 c-15 -39 23 -74 50 -45 8 9 7 11 -6 6 -10 -3 -20 -2 -23 3
-3 5 4 12 15 15 12 4 19 12 17 18 -6 18 -46 21 -53 3z"/>
<path d="M3335 351 c-3 -7 0 -8 9 -5 21 8 20 -6 -1 -21 -19 -14 -10 -35 16
-35 25 0 30 8 22 38 -8 28 -34 41 -46 23z"/>
<path d="M3400 326 c0 -32 2 -35 30 -34 27 1 30 4 30 35 0 18 -4 33 -10 33 -5
0 -10 -11 -10 -25 0 -14 -4 -25 -10 -25 -5 0 -10 11 -10 25 0 14 -4 25 -10 25
-5 0 -10 -15 -10 -34z"/>
<path d="M3480 345 c-6 -8 -10 -22 -8 -32 3 -15 14 -18 61 -20 l58 -2 -3 32
c-3 35 -31 49 -52 26 -8 -9 -7 -11 7 -6 9 4 17 3 17 -1 0 -12 -56 -42 -64 -35
-12 12 -6 33 9 33 8 0 15 5 15 10 0 15 -26 12 -40 -5z m90 -35 c0 -5 -2 -10
-4 -10 -3 0 -8 5 -11 10 -3 6 -1 10 4 10 6 0 11 -4 11 -10z"/>
<path d="M958 3 c530 -2 1394 -2 1920 0 526 1 93 2 -963 2 -1056 0 -1487 -1
-957 -2z"/>
</g>
</svg>
